<svg width="21" height="13" viewBox="0 0 21 13" fill="none" xmlns="http://www.w3.org/2000/svg">
<path d="M4.59401 2.96524C7.85579 -0.0995167 13.1442 -0.0995167 16.406 2.96524L16.9457 3.47233C17.0273 3.54902 17.0275 3.67348 16.9461 3.75032C16.946 3.75046 16.9459 3.7506 16.9457 3.75075L15.4553 5.15094C15.374 5.22746 15.2421 5.22746 15.1606 5.15094L14.6202 4.64314C12.3447 2.50512 8.65533 2.50512 6.37987 4.64314L5.80104 5.187C5.71958 5.26352 5.58775 5.26352 5.50629 5.187L4.01599 3.78668C3.93438 3.71 3.93422 3.58553 4.0156 3.50871C4.01573 3.50857 4.01586 3.50842 4.01599 3.50835L4.59401 2.96524ZM19.0352 5.43559L20.3774 6.69661C20.5406 6.85003 20.5409 7.09891 20.3782 7.25271C20.3779 7.25299 20.3777 7.25319 20.3774 7.25347L14.9888 12.3166C14.8258 12.4696 14.5622 12.4696 14.3992 12.3166L10.5737 8.72215C10.533 8.68389 10.4671 8.68389 10.4264 8.72215L6.60091 12.3166C6.43796 12.4696 6.17432 12.4696 6.01141 12.3166L0.622636 7.25338C0.459426 7.10005 0.459075 6.85099 0.621865 6.69728C0.622119 6.69709 0.622372 6.6968 0.622636 6.69661L1.96472 5.43559C2.04618 5.35907 2.17802 5.35907 2.25947 5.43559L6.23242 9.16844C6.27318 9.2068 6.3391 9.2068 6.37979 9.16844L10.2052 5.57408C10.3681 5.42095 10.6317 5.42095 10.7946 5.57408L14.6203 9.16844C14.661 9.2068 14.7268 9.2068 14.7676 9.16844L18.7405 5.43559C18.822 5.35916 18.9538 5.35916 19.0352 5.43559Z" fill="#3B99FC"/>
</svg>
